<svg width="93" height="30" viewBox="0 0 93 30" fill="none" xmlns="http://www.w3.org/2000/svg">
<path d="M0 25.2503V22.619C0 21.8433 0.479766 22.1716 0.479766 22.1716C0.479766 22.1716 6.12261 25.727 7.01254 25.727C7.90246 25.727 10.9874 24.2922 10.9874 24.2922C12.8493 23.5115 13.1028 23.407 14.4327 22.7139C17.4381 21.1526 17.2169 21.1672 17.2169 19.0466V10.9242V9.11732C17.2169 5.32361 15.8795 4.03229 12.2775 4.01527C8.46923 3.99824 3.80581 3.99824 1.96878 4.03472C1.8768 4.03472 1.82957 4.03472 1.7376 4.03472C1.32246 4.03472 0.887443 3.62617 0.887443 3.03766V1.45694C0.887443 0.958412 1.20563 0.5912 1.85692 0.598495C3.8257 0.61795 9.14041 0.627678 12.2775 0.627678C18.6935 0.627678 21.2787 3.7891 21.2787 9.11732L21.2588 20.5665C21.1321 22.5047 20.7716 23.6988 16.2897 25.778L15.1536 26.2571L10.3982 28.2123C10.3982 28.2123 7.87761 29.4988 7.01254 29.4988C6.14747 29.4988 0.479766 25.9774 0.479766 25.9774C0.479766 25.9774 0 25.6491 0 25.2503Z" fill="white" fill-opacity="0.9"/>
<path d="M31.15 11.1382C41.0312 10.3016 40.2854 6.60764 40.2854 6.60764C40.2606 4.96126 39.8032 3.54105 35.448 3.44378C34.0062 3.40973 33.8049 3.40973 32.4103 3.42432C29.1763 3.45594 29.1787 4.9564 29.216 6.59061C29.2359 7.46365 29.216 12.5195 29.216 12.5195V15.3648V17.1717C29.216 20.9654 30.5534 22.2567 34.1554 22.2737C37.9662 22.2932 39.4875 22.2932 41.327 22.2567C41.419 22.2567 41.4662 22.2567 41.5582 22.2567C41.9733 22.2567 42.4083 22.6652 42.4083 23.2538V24.8345C42.4083 25.3306 42.0902 25.6978 41.4389 25.6929C39.4701 25.6735 37.295 25.6637 34.1554 25.6637C27.7394 25.6637 25.1542 22.5023 25.1542 17.1741V5.82457C25.1542 4.3533 25.537 0.537699 30.1432 0.506084H31.3688L36.0869 0.501221C41.9062 0.501221 43.7532 3.82072 43.7532 6.43741C43.7532 6.43741 44.6332 13.1007 31.334 14.1537C31.334 14.1537 30.6653 14.2996 30.6454 13.626C30.6255 12.8624 30.6578 11.8507 30.6578 11.5613C30.6578 11.272 30.8989 11.1577 31.1475 11.1382H31.15Z" fill="white" fill-opacity="0.9"/>
<path d="M71.065 25.778H68.8501C68.343 25.778 67.9279 25.3719 67.9279 24.8734V1.4837C67.9279 0.987604 68.343 0.581482 68.8501 0.581482H71.065C71.5721 0.581482 71.9897 0.987604 71.9897 1.4837V24.8758C71.9897 25.3719 71.5746 25.7805 71.065 25.7805V25.778Z" fill="white" fill-opacity="0.9"/>
<path d="M84.3692 26.0942C82.6614 26.0942 79.83 26.2158 77.0757 26.0528C76.4617 26.0164 76.1062 25.6467 76.1062 25.1506V23.5699C76.1062 23.1638 76.4766 22.8914 76.9365 22.8914H77.1205C79.5964 22.9084 82.7061 22.7528 84.3667 22.7528C87.3671 22.7528 88.9356 21.9843 88.9356 19.5476C88.9356 18.193 88.1054 17.3346 85.4729 15.8001L80.8119 13.091C77.9955 11.4203 76.1038 9.47967 76.1038 6.63439C76.1038 1.93846 79.7033 0.627683 84.4586 0.627683C87.0439 0.627683 89.3806 0.603364 91.6601 0.705503C92.2667 0.732253 92.5376 1.11162 92.5376 1.60773V3.09846C92.5376 3.64076 92.202 3.94961 91.7397 3.94961C91.6924 3.94961 91.6477 3.94961 91.6029 3.94961C89.8827 3.9715 87.0464 4.01284 84.4611 4.01284C81.8759 4.01284 80.1681 4.32898 80.1681 6.63196C80.1681 7.98651 81.2295 8.84496 83.3525 10.0633L87.9214 12.7286C91.7521 14.9416 92.9975 16.8823 92.9975 19.5476C92.9975 24.1536 89.5347 26.0942 84.3667 26.0942H84.3692Z" fill="white" fill-opacity="0.9"/>
<path d="M60.2516 14.6401C60.2516 14.6401 60.2417 13.9981 60.7886 13.9981H63.2321C63.7989 13.9981 63.7442 14.6401 63.7442 14.6401V20.7927C63.7442 23.4094 62.7027 25.7853 57.4874 25.7853L52.7693 25.7805H51.5438C46.9375 25.7489 46.5547 21.9333 46.5547 20.462V9.11976C46.5547 3.79155 49.14 0.630121 55.5559 0.630121C58.693 0.630121 60.8681 0.617962 62.8394 0.600939C63.4932 0.596075 63.8089 0.963287 63.8089 1.45939V3.0401C63.8089 3.62618 63.3738 4.03717 62.9587 4.03717C62.8667 4.03717 62.8195 4.03717 62.7275 4.03717C60.888 4.00069 59.3667 4.00069 55.5559 4.01771C51.9564 4.03473 50.6165 5.32849 50.6165 9.11976V10.9266V13.7719C50.6165 13.7719 50.6364 18.8278 50.6165 19.7008C50.5793 21.335 50.5768 22.8355 53.8108 22.8671C55.2054 22.8817 55.4092 22.8452 56.8485 22.8501C60.7239 22.8574 60.2293 21.6706 60.2765 19.6352L60.2541 14.645L60.2516 14.6401Z" fill="white" fill-opacity="0.9"/>
<path d="M8.78741 12.7821C8.61589 12.7821 8.47668 12.9183 8.47668 13.0861V23.2635C8.47668 23.4313 8.60595 23.5115 8.76256 23.4459L11.1316 22.4318C11.2882 22.3661 11.4174 22.174 11.4174 22.0062V13.0983C11.4174 12.9305 11.2782 12.7943 11.1067 12.7943L8.78741 12.7846V12.7821Z" fill="#FEE000"/>
<path d="M4.82001 12.7651C4.64848 12.7651 4.50928 12.9013 4.50928 13.0691V22.4391C4.50928 22.6069 4.63108 22.8087 4.78023 22.8914L6.83602 24.0052C6.98517 24.0854 7.18403 24.1195 7.2785 24.0806C7.37296 24.0417 7.44753 23.8714 7.44753 23.7036V13.0837C7.44753 12.9159 7.30833 12.7797 7.1368 12.7797L4.81752 12.77L4.82001 12.7651Z" fill="#4CB748"/>
<path d="M0.934664 12.7505C0.763142 12.7505 0.623935 12.8867 0.623935 13.0545L0.601562 20.3233C0.601562 20.4911 0.723368 20.693 0.872518 20.7757L3.21169 22.0427C3.36084 22.1229 3.48264 22.0524 3.48264 21.887V13.0691C3.48264 12.9013 3.34344 12.7651 3.17191 12.7651L0.934664 12.7554V12.7505Z" fill="#1981C4"/>
<path d="M12.7523 12.7967C12.5808 12.7967 12.4416 12.9329 12.4416 13.1007V21.566C12.4416 21.7338 12.5709 21.8141 12.7275 21.7484L15.0989 20.7343C15.2556 20.6662 15.3848 20.4766 15.3848 20.3088V13.1104C15.3848 12.9426 15.2456 12.8064 15.0741 12.8064L12.7548 12.7967H12.7523Z" fill="#F38520"/>
</svg>
