<svg width="24" height="24" viewBox="0 0 24 24" fill="none" xmlns="http://www.w3.org/2000/svg">
<g clip-path="url(#clip0_90_1842)">
<mask id="mask0_90_1842" style="mask-type:alpha" maskUnits="userSpaceOnUse" x="0" y="0" width="24" height="24">
<rect width="24" height="24" fill="#323F49"/>
</mask>
<g mask="url(#mask0_90_1842)">
<path d="M12 10C10.9 10 9.95833 9.60833 9.175 8.825C8.39167 8.04167 8 7.1 8 6C8 4.9 8.39167 3.95833 9.175 3.175C9.95833 2.39167 10.9 2 12 2C13.1 2 14.0417 2.39167 14.825 3.175C15.6083 3.95833 16 4.9 16 6C16 7.1 15.6083 8.04167 14.825 8.825C14.0417 9.60833 13.1 10 12 10ZM12 8C12.55 8 13.0208 7.80417 13.4125 7.4125C13.8042 7.02083 14 6.55 14 6C14 5.45 13.8042 4.97917 13.4125 4.5875C13.0208 4.19583 12.55 4 12 4C11.45 4 10.9792 4.19583 10.5875 4.5875C10.1958 4.97917 10 5.45 10 6C10 6.55 10.1958 7.02083 10.5875 7.4125C10.9792 7.80417 11.45 8 12 8ZM4 22V15.225C4 14.6583 4.14167 14.1375 4.425 13.6625C4.70833 13.1875 5.1 12.8167 5.6 12.55C6.45 12.1167 7.4125 11.75 8.4875 11.45C9.5625 11.15 10.7333 11 12 11C13.2667 11 14.4375 11.15 15.5125 11.45C16.5875 11.75 17.55 12.1167 18.4 12.55C18.9 12.8167 19.2917 13.1875 19.575 13.6625C19.8583 14.1375 20 14.6583 20 15.225V20C20 20.55 19.8042 21.0208 19.4125 21.4125C19.0208 21.8042 18.55 22 18 22H9.75C8.98333 22 8.33333 21.7333 7.8 21.2C7.26667 20.6667 7 20.0167 7 19.25C7 18.4833 7.26667 17.8333 7.8 17.3C8.33333 16.7667 8.98333 16.5 9.75 16.5H12.575L14.125 13.2C13.7917 13.1333 13.45 13.0833 13.1 13.05C12.75 13.0167 12.3833 13 12 13C10.8 13 9.73333 13.1458 8.8 13.4375C7.86667 13.7292 7.10833 14.0333 6.525 14.35C6.35833 14.4333 6.22917 14.5542 6.1375 14.7125C6.04583 14.8708 6 15.0417 6 15.225V22H4ZM9.75 20H10.95L11.65 18.5H9.75C9.55 18.5 9.375 18.575 9.225 18.725C9.075 18.875 9 19.05 9 19.25C9 19.45 9.075 19.625 9.225 19.775C9.375 19.925 9.55 20 9.75 20ZM13.15 20H18V15.225C18 15.0417 17.9542 14.8708 17.8625 14.7125C17.7708 14.5542 17.65 14.4333 17.5 14.35C17.3 14.25 17.0833 14.1458 16.85 14.0375C16.6167 13.9292 16.3667 13.825 16.1 13.725L13.15 20Z" fill="#323F49"/>
</g>
</g>
<defs>
<clipPath id="clip0_90_1842">
<rect width="24" height="24" fill="white"/>
</clipPath>
</defs>
</svg>
