<svg width="24" height="24" viewBox="0 0 24 24" fill="none" xmlns="http://www.w3.org/2000/svg">
<g clip-path="url(#clip0_115_1449)">
<mask id="mask0_115_1449" style="mask-type:alpha" maskUnits="userSpaceOnUse" x="0" y="0" width="24" height="24">
<rect width="24" height="24" fill="#D9D9D9"/>
</mask>
<g mask="url(#mask0_115_1449)">
<path d="M12 22C9.68333 21.4167 7.77083 20.0875 6.2625 18.0125C4.75417 15.9375 4 13.6333 4 11.1V5L12 2L20 5V11.1C20 12.5167 19.7583 13.8792 19.275 15.1875C18.7917 16.4958 18.1 17.65 17.2 18.65L14 15.45C13.7 15.6333 13.3792 15.7708 13.0375 15.8625C12.6958 15.9542 12.35 16 12 16C10.9 16 9.95833 15.6083 9.175 14.825C8.39167 14.0417 8 13.1 8 12C8 10.9 8.39167 9.95833 9.175 9.175C9.95833 8.39167 10.9 8 12 8C13.1 8 14.0417 8.39167 14.825 9.175C15.6083 9.95833 16 10.9 16 12C16 12.3667 15.9542 12.7208 15.8625 13.0625C15.7708 13.4042 15.6333 13.7333 15.45 14.05L16.95 15.55C17.2833 14.8667 17.5417 14.15 17.725 13.4C17.9083 12.65 18 11.8833 18 11.1V6.375L12 4.125L6 6.375V11.1C6 13.1167 6.56667 14.95 7.7 16.6C8.83333 18.25 10.2667 19.35 12 19.9C12.4333 19.7667 12.8458 19.5958 13.2375 19.3875C13.6292 19.1792 14.0167 18.9333 14.4 18.65L15.8 20.05C15.25 20.5 14.6542 20.8917 14.0125 21.225C13.3708 21.5583 12.7 21.8167 12 22ZM12 14C12.55 14 13.0208 13.8042 13.4125 13.4125C13.8042 13.0208 14 12.55 14 12C14 11.45 13.8042 10.9792 13.4125 10.5875C13.0208 10.1958 12.55 10 12 10C11.45 10 10.9792 10.1958 10.5875 10.5875C10.1958 10.9792 10 11.45 10 12C10 12.55 10.1958 13.0208 10.5875 13.4125C10.9792 13.8042 11.45 14 12 14Z" fill="#323F49"/>
</g>
</g>
<defs>
<clipPath id="clip0_115_1449">
<rect width="24" height="24" fill="white"/>
</clipPath>
</defs>
</svg>
