<svg width="24" height="24" viewBox="0 0 24 24" fill="none" xmlns="http://www.w3.org/2000/svg">
<g clip-path="url(#clip0_115_1475)">
<mask id="mask0_115_1475" style="mask-type:alpha" maskUnits="userSpaceOnUse" x="0" y="0" width="24" height="24">
<rect width="24" height="24" fill="#D9D9D9"/>
</mask>
<g mask="url(#mask0_115_1475)">
<path d="M20.5 16.5C20.0833 16.5 19.7292 16.3542 19.4375 16.0625C19.1458 15.7708 19 15.4167 19 15V12.5C19 12.0833 19.1458 11.7292 19.4375 11.4375C19.7292 11.1458 20.0833 11 20.5 11C20.9167 11 21.2708 11.1458 21.5625 11.4375C21.8542 11.7292 22 12.0833 22 12.5V15C22 15.4167 21.8542 15.7708 21.5625 16.0625C21.2708 16.3542 20.9167 16.5 20.5 16.5ZM20 20V18.45C19.15 18.3167 18.4375 17.9292 17.8625 17.2875C17.2875 16.6458 17 15.8833 17 15H18C18 15.7 18.2417 16.2917 18.725 16.775C19.2083 17.2583 19.8 17.5 20.5 17.5C21.2 17.5 21.7917 17.2583 22.275 16.775C22.7583 16.2917 23 15.7 23 15H24C24 15.8833 23.7125 16.6458 23.1375 17.2875C22.5625 17.9292 21.85 18.3167 21 18.45V20H20ZM9 12C7.9 12 6.95833 11.6083 6.175 10.825C5.39167 10.0417 5 9.1 5 8C5 6.9 5.39167 5.95833 6.175 5.175C6.95833 4.39167 7.9 4 9 4C9.23333 4 9.4625 4.01667 9.6875 4.05C9.9125 4.08333 10.1333 4.14167 10.35 4.225C9.91667 4.74167 9.58333 5.32083 9.35 5.9625C9.11667 6.60417 9 7.28333 9 8C9 8.71667 9.11667 9.39583 9.35 10.0375C9.58333 10.6792 9.91667 11.2583 10.35 11.775C10.1333 11.8583 9.9125 11.9167 9.6875 11.95C9.4625 11.9833 9.23333 12 9 12ZM1 20V17.225C1 16.6583 1.14167 16.1333 1.425 15.65C1.70833 15.1667 2.1 14.8 2.6 14.55C3.23333 14.2167 3.92083 13.9292 4.6625 13.6875C5.40417 13.4458 6.21667 13.2583 7.1 13.125C6.43333 13.5917 5.91667 14.1833 5.55 14.9C5.18333 15.6167 5 16.3917 5 17.225V20H1ZM15 12C13.9 12 12.9583 11.6083 12.175 10.825C11.3917 10.0417 11 9.1 11 8C11 6.9 11.3917 5.95833 12.175 5.175C12.9583 4.39167 13.9 4 15 4C16.1 4 17.0417 4.39167 17.825 5.175C18.6083 5.95833 19 6.9 19 8C19 9.1 18.6083 10.0417 17.825 10.825C17.0417 11.6083 16.1 12 15 12ZM15 10C15.55 10 16.0208 9.80417 16.4125 9.4125C16.8042 9.02083 17 8.55 17 8C17 7.45 16.8042 6.97917 16.4125 6.5875C16.0208 6.19583 15.55 6 15 6C14.45 6 13.9792 6.19583 13.5875 6.5875C13.1958 6.97917 13 7.45 13 8C13 8.55 13.1958 9.02083 13.5875 9.4125C13.9792 9.80417 14.45 10 15 10ZM7 20V17.225C7 16.6583 7.14167 16.1333 7.425 15.65C7.70833 15.1667 8.1 14.8 8.6 14.55C9.45 14.1167 10.4125 13.75 11.4875 13.45C12.5625 13.15 13.7333 13 15 13C15.2 13 15.3958 13.0042 15.5875 13.0125C15.7792 13.0208 15.9667 13.0333 16.15 13.05C15.9833 13.35 15.8458 13.6625 15.7375 13.9875C15.6292 14.3125 15.5583 14.65 15.525 15H15C13.8 15 12.7375 15.15 11.8125 15.45C10.8875 15.75 10.125 16.05 9.525 16.35C9.35833 16.4333 9.22917 16.5542 9.1375 16.7125C9.04583 16.8708 9 17.0417 9 17.225V18H16.175C16.425 18.4333 16.7333 18.8167 17.1 19.15C17.4667 19.4833 17.875 19.7667 18.325 20H7Z" fill="#323F49"/>
</g>
</g>
<defs>
<clipPath id="clip0_115_1475">
<rect width="24" height="24" fill="white"/>
</clipPath>
</defs>
</svg>
